<?xml version="1.0" standalone="no"?>
<!DOCTYPE svg PUBLIC "-//W3C//DTD SVG 20010904//EN"
 "http://www.w3.org/TR/2001/REC-SVG-20010904/DTD/svg10.dtd">
<svg version="1.0" xmlns="http://www.w3.org/2000/svg"
 width="256.000000pt" height="256.000000pt" viewBox="0 0 256.000000 256.000000"
 preserveAspectRatio="xMidYMid meet">
<metadata>
Created by potrace 1.11, written by Peter Selinger 2001-2013
</metadata>
<g transform="translate(0.000000,256.000000) scale(0.100000,-0.100000)"
fill="#000000" stroke="none">
<path d="M1697 2387 c-53 -13 -102 -63 -117 -117 -9 -30 -13 -132 -13 -310 0
-284 5 -314 55 -367 55 -59 183 -69 258 -20 53 36 73 85 78 193 l4 92 -52 3
c-28 2 -57 1 -63 -3 -7 -4 -12 -39 -13 -83 -2 -89 -14 -109 -70 -109 -63 0
-64 6 -64 300 0 235 2 264 18 283 22 29 79 32 98 6 14 -18 15 -27 18 -110 l1
-39 64 -1 63 -1 -5 82 c-5 98 -31 151 -87 183 -43 24 -118 32 -173 18z"/>
<path d="M434 2082 c-13 -2 -23 -12 -26 -25 -2 -12 -3 -408 -3 -879 0 -472 -2
-858 -5 -859 -3 -1 -66 -2 -140 -3 -74 -1 -141 -5 -148 -9 -15 -10 -16 -34 -1
-43 21 -13 1799 -8 1812 5 8 8 9 16 1 29 -9 14 -27 17 -102 17 -50 1 -94 4
-98 7 -3 4 -6 232 -6 507 -1 274 -4 505 -9 512 -6 10 -59 13 -228 13 l-220 0
-1 355 c0 209 -4 359 -10 365 -8 8 -761 16 -816 8z m757 -61 c7 -1 10 -627 3
-652 -4 -13 -27 -15 -160 -15 -111 -1 -158 -4 -163 -13 -4 -6 -7 -237 -7 -512
1 -533 2 -517 -44 -515 -13 1 -15 26 -17 153 -1 130 -4 156 -20 177 -17 24
-64 41 -105 39 -10 0 -28 -1 -41 -2 -12 0 -35 -12 -50 -26 l-27 -26 0 -154 c0
-85 -3 -155 -7 -156 -47 -5 -75 -4 -80 4 -7 12 -8 1681 0 1693 4 7 685 12 718
5z m464 -1218 l0 -487 -350 -1 c-192 -1 -357 1 -365 3 -14 3 -16 61 -16 488
l0 484 366 0 365 0 0 -487z m-917 -332 c2 -85 -1 -147 -7 -150 -5 -3 -31 -6
-58 -6 l-48 1 -3 129 c-4 177 -4 177 61 173 l52 -3 3 -144z"/>
<path d="M600 1960 l-35 -5 -3 -109 c-1 -60 1 -113 6 -118 12 -12 212 -12 224
0 13 13 12 212 0 224 -10 10 -138 16 -192 8z m123 -59 c14 -1 17 -11 17 -61
l0 -60 -60 0 -60 0 0 59 c0 64 3 67 52 64 18 -1 41 -2 51 -2z"/>
<path d="M877 1958 c-19 -12 -19 -214 -1 -229 20 -17 215 -14 226 4 11 17 10
199 -1 216 -7 10 -36 14 -111 15 -56 0 -107 -2 -113 -6z m149 -57 c18 -1 20
-7 20 -58 l-1 -58 -60 0 -60 0 0 55 c-1 30 2 57 6 60 4 3 22 4 41 3 18 -1 42
-2 54 -2z"/>
<path d="M566 1644 c-3 -9 -6 -63 -6 -120 0 -76 3 -104 13 -106 6 0 56 -2 109
-3 71 -2 101 1 109 11 16 20 14 215 -3 225 -7 5 -59 9 -114 9 -84 0 -103 -3
-108 -16z m169 -108 l0 -60 -55 0 -55 -1 -3 62 -3 62 58 -2 58 -2 0 -59z"/>
<path d="M873 1648 c-6 -7 -10 -59 -9 -116 1 -79 4 -105 16 -112 17 -11 199
-8 218 3 16 11 17 208 0 225 -17 17 -212 16 -225 0z m173 -111 c1 -35 -3 -57
-10 -58 -15 -1 -89 -1 -102 0 -7 1 -10 23 -9 59 2 31 3 58 4 59 0 1 27 1 58
-1 l57 -2 2 -57z"/>
<path d="M570 1346 c-12 -12 -13 -223 -1 -230 16 -10 213 -8 223 2 14 14 12
212 -2 226 -13 13 -208 14 -220 2z m170 -116 l0 -60 -60 0 -60 0 0 60 0 60 60
0 60 0 0 -60z"/>
<path d="M573 1043 c-9 -3 -13 -36 -13 -113 0 -74 4 -110 13 -117 12 -10 212
-11 222 -2 3 3 6 54 6 113 2 83 -1 110 -12 117 -15 9 -195 11 -216 2z m165
-117 l-3 -61 -57 0 -58 -1 0 61 0 61 60 0 61 1 -3 -61z"/>
<path d="M1049 1232 c-15 -2 -29 -11 -31 -20 -6 -25 -2 -211 5 -218 9 -9 193
-11 217 -2 18 7 20 16 20 118 0 79 -4 112 -12 115 -16 6 -164 11 -199 7z m149
-122 l1 -61 -61 3 -62 3 -1 50 c0 28 1 53 3 58 2 4 29 7 61 7 l57 0 2 -60z"/>
<path d="M1410 1230 l-85 -5 -3 -109 c-1 -60 2 -114 7 -119 13 -13 189 -15
215 -2 19 9 21 19 21 113 1 61 -3 106 -9 111 -18 13 -56 16 -146 11z m93 -112
c-1 -29 -2 -56 -2 -60 -1 -5 -28 -8 -62 -8 l-60 0 2 60 2 60 61 0 61 0 -2 -52z"/>
<path d="M1028 919 c-13 -8 -19 -184 -7 -218 7 -17 17 -19 113 -19 76 1 109 5
117 15 14 16 12 202 -1 219 -11 12 -202 15 -222 3z m170 -115 l-1 -60 -58 -2
c-55 -1 -59 0 -60 21 -5 107 -8 103 70 102 l49 0 0 -61z"/>
<path d="M1330 915 c-14 -17 -14 -203 0 -220 8 -9 40 -13 116 -13 87 0 106 3
113 17 13 26 7 211 -8 220 -21 14 -209 10 -221 -4z m165 -57 c4 -4 7 -24 7
-45 -1 -77 3 -72 -59 -70 l-58 2 -3 54 c-2 30 1 57 7 60 14 9 98 8 106 -1z"/>
<path d="M1073 622 c-28 -2 -46 -9 -51 -20 -10 -19 -9 -208 0 -218 9 -8 212
-9 226 0 16 10 17 222 1 232 -12 7 -110 11 -176 6z m125 -127 l-1 -60 -56 0
c-31 0 -58 3 -61 7 -5 6 -5 73 -1 111 1 5 28 7 61 5 l59 -3 -1 -60z"/>
<path d="M1326 605 c-10 -28 -9 -206 2 -217 12 -12 218 -15 230 -4 10 10 10
199 0 219 -7 15 -24 17 -117 17 -87 0 -110 -3 -115 -15z m175 -62 c6 -111 7
-110 -71 -105 l-50 4 1 58 2 57 58 2 c50 1 59 -1 60 -16z"/>
<path d="M2135 1291 c-3 -2 -5 -190 -5 -418 l0 -413 68 0 67 0 -1 413 c-1 226
-2 415 -3 418 -1 7 -119 7 -126 0z"/>
</g>
</svg>
